<svg width="48" height="48" viewBox="0 0 48 48" fill="none" xmlns="http://www.w3.org/2000/svg">
<path d="M39.3848 47.7141H8.89576C4.21876 47.7141 0.426758 43.9221 0.426758 39.2451V8.7561C0.426758 4.0791 4.21876 0.287109 8.89576 0.287109H39.3848C44.0618 0.287109 47.8538 4.0791 47.8538 8.7561V39.2451C47.8538 43.9231 44.0628 47.7141 39.3848 47.7141Z" fill="#3E5C9A"/>
<path d="M20.5264 38.335H26.2984V23.88H30.3254L30.7544 19.04H26.2974C26.2974 19.04 26.2974 17.233 26.2974 16.283C26.2974 15.142 26.5264 14.691 27.6304 14.691C28.5184 14.691 30.7544 14.691 30.7544 14.691V9.66797C30.7544 9.66797 27.4604 9.66797 26.7574 9.66797C22.4624 9.66797 20.5254 11.56 20.5254 15.181C20.5254 18.335 20.5254 19.04 20.5254 19.04H17.5244V23.941H20.5274L20.5264 38.335Z" fill="white"/>
</svg>
