<svg width="49" height="48" viewBox="0 0 49 48" fill="none" xmlns="http://www.w3.org/2000/svg">
<path d="M39.8115 47.7141H9.32252C4.64552 47.7141 0.853516 43.9221 0.853516 39.2451V8.7561C0.853516 4.0791 4.64552 0.287109 9.32252 0.287109H39.8115C44.4885 0.287109 48.2805 4.0791 48.2805 8.7561V39.2451C48.2805 43.9231 44.4895 47.7141 39.8115 47.7141Z" fill="url(#paint0_radial_141_6793)"/>
<path d="M24.5674 13.342C28.0394 13.342 28.4504 13.355 29.8214 13.418C31.0894 13.476 31.7774 13.688 32.2354 13.866C32.8424 14.102 33.2754 14.383 33.7304 14.839C34.1854 15.294 34.4674 15.727 34.7034 16.334C34.8814 16.792 35.0934 17.481 35.1514 18.749C35.2134 20.12 35.2274 20.531 35.2274 24.003C35.2274 27.475 35.2144 27.886 35.1514 29.257C35.0934 30.525 34.8814 31.213 34.7034 31.671C34.4674 32.278 34.1854 32.711 33.7304 33.166C33.2754 33.621 32.8424 33.903 32.2354 34.138C31.7774 34.316 31.0884 34.528 29.8214 34.586C28.4504 34.648 28.0394 34.662 24.5674 34.662C21.0954 34.662 20.6844 34.649 19.3134 34.586C18.0454 34.528 17.3574 34.316 16.8994 34.138C16.2924 33.902 15.8594 33.62 15.4044 33.166C14.9494 32.711 14.6674 32.278 14.4314 31.671C14.2534 31.213 14.0414 30.525 13.9834 29.257C13.9214 27.886 13.9074 27.475 13.9074 24.003C13.9074 20.531 13.9204 20.12 13.9834 18.749C14.0414 17.481 14.2534 16.793 14.4314 16.334C14.6674 15.727 14.9494 15.294 15.4044 14.839C15.8594 14.384 16.2924 14.102 16.8994 13.866C17.3574 13.688 18.0464 13.476 19.3134 13.418C20.6844 13.356 21.0954 13.342 24.5674 13.342ZM24.5674 11C21.0364 11 20.5934 11.015 19.2064 11.078C17.8224 11.141 16.8774 11.361 16.0504 11.682C15.1954 12.014 14.4704 12.459 13.7474 13.182C13.0244 13.905 12.5804 14.63 12.2484 15.485C11.9264 16.312 11.7074 17.257 11.6444 18.641C11.5814 20.028 11.5664 20.471 11.5664 24.002C11.5664 27.533 11.5814 27.976 11.6444 29.363C11.7074 30.747 11.9274 31.692 12.2484 32.519C12.5804 33.374 13.0254 34.099 13.7474 34.822C14.4704 35.545 15.1954 35.989 16.0504 36.322C16.8774 36.643 17.8224 36.863 19.2064 36.926C20.5934 36.989 21.0364 37.004 24.5674 37.004C28.0984 37.004 28.5414 36.989 29.9284 36.926C31.3124 36.863 32.2574 36.643 33.0844 36.322C33.9394 35.99 34.6644 35.545 35.3874 34.822C36.1104 34.099 36.5544 33.374 36.8874 32.519C37.2084 31.692 37.4284 30.747 37.4914 29.363C37.5544 27.976 37.5694 27.533 37.5694 24.002C37.5694 20.471 37.5544 20.028 37.4914 18.641C37.4284 17.257 37.2084 16.312 36.8874 15.485C36.5554 14.63 36.1104 13.905 35.3874 13.182C34.6644 12.459 33.9394 12.015 33.0844 11.682C32.2574 11.361 31.3124 11.141 29.9284 11.078C28.5414 11.015 28.0984 11 24.5674 11Z" fill="white"/>
<path d="M24.5676 17.3242C20.8806 17.3242 17.8906 20.3132 17.8906 24.0012C17.8906 27.6892 20.8796 30.6782 24.5676 30.6782C28.2556 30.6782 31.2446 27.6892 31.2446 24.0012C31.2446 20.3132 28.2546 17.3242 24.5676 17.3242ZM24.5676 28.3352C22.1736 28.3352 20.2336 26.3942 20.2336 24.0012C20.2336 21.6072 22.1736 19.6672 24.5676 19.6672C26.9616 19.6672 28.9016 21.6072 28.9016 24.0012C28.9016 26.3942 26.9606 28.3352 24.5676 28.3352Z" fill="white"/>
<path d="M33.0682 17.062C33.0682 17.924 32.3692 18.622 31.5082 18.622C30.6462 18.622 29.9482 17.923 29.9482 17.062C29.9482 16.2 30.6462 15.502 31.5082 15.502C32.3692 15.502 33.0682 16.201 33.0682 17.062Z" fill="white"/>
<defs>
<radialGradient id="paint0_radial_141_6793" cx="0" cy="0" r="1" gradientUnits="userSpaceOnUse" gradientTransform="translate(-0.332881 47.8719) scale(87.6878 87.6878)">
<stop stop-color="#F5EC53"/>
<stop offset="0.2412" stop-color="#E48244"/>
<stop offset="0.3974" stop-color="#D15767"/>
<stop offset="0.4888" stop-color="#C84278"/>
<stop offset="1" stop-color="#192CFA"/>
</radialGradient>
</defs>
</svg>
