<svg width="48" height="48" viewBox="0 0 48 48" fill="none" xmlns="http://www.w3.org/2000/svg">
<path d="M39.2392 47.7141H8.75024C4.07324 47.7141 0.28125 43.9221 0.28125 39.2451V8.7561C0.28125 4.0791 4.07324 0.287109 8.75024 0.287109H39.2392C43.9162 0.287109 47.7083 4.0791 47.7083 8.7561V39.2451C47.7083 43.9231 43.9162 47.7141 39.2392 47.7141Z" fill="#29A9E1"/>
<path d="M11.3604 31.9384C13.6544 33.4094 16.3794 34.2684 19.3074 34.2684C28.9334 34.2684 34.3703 26.1384 34.0434 18.8464C35.0553 18.1164 35.9354 17.2034 36.6304 16.1624C35.7004 16.5744 34.7014 16.8534 33.6534 16.9784C34.7234 16.3384 35.5454 15.3224 35.9324 14.1104C34.9304 14.7044 33.8214 15.1364 32.6414 15.3694C31.6954 14.3614 30.3484 13.7324 28.8564 13.7324C25.5104 13.7324 23.0514 16.8554 23.8064 20.0984C19.4974 19.8824 15.6774 17.8184 13.1214 14.6814C11.7634 17.0124 12.4174 20.0614 14.7254 21.6034C13.8754 21.5764 13.0744 21.3424 12.3764 20.9544C12.3204 23.3564 14.0413 25.6024 16.5343 26.1034C15.8043 26.3024 15.0054 26.3464 14.1944 26.1914C14.8524 28.2514 16.7673 29.7494 19.0363 29.7924C16.8563 31.5014 14.1104 32.2634 11.3604 31.9384Z" fill="white"/>
</svg>
