<svg width="48" height="48" viewBox="0 0 48 48" fill="none" xmlns="http://www.w3.org/2000/svg">
<path d="M38.958 47.7141H8.46899C3.79199 47.7141 0 43.9221 0 39.2451V8.7561C0 4.0791 3.79199 0.287109 8.46899 0.287109H38.958C43.635 0.287109 47.427 4.0791 47.427 8.7561V39.2451C47.427 43.9231 43.635 47.7141 38.958 47.7141Z" fill="#57F676"/>
<path fill-rule="evenodd" clip-rule="evenodd" d="M36.7141 23.3422C36.541 16.4902 30.8971 10.9902 23.9491 10.9902C17.0851 10.9902 11.4891 16.3652 11.1911 23.1092C11.1851 23.2942 11.1791 23.4802 11.1791 23.6652C11.1791 26.0622 11.8481 28.2992 13.0081 30.2122L10.7061 37.0102L17.7791 34.7622C19.6091 35.7662 21.7131 36.3412 23.9491 36.3412C31.0041 36.3412 36.7201 30.6672 36.7201 23.6662C36.7201 23.5572 36.7201 23.4502 36.7141 23.3422ZM23.9491 34.3192C21.7671 34.3192 19.7401 33.6732 18.0421 32.5552L13.9171 33.8702L15.2561 29.9122C13.9711 28.1542 13.2111 25.9962 13.2111 23.6642C13.2111 23.3172 13.2291 22.9702 13.2651 22.6302C13.7911 17.2372 18.3831 13.0102 23.9491 13.0102C29.5871 13.0102 34.2211 17.3442 34.6511 22.8332C34.6751 23.1082 34.6871 23.3832 34.6871 23.6642C34.6871 29.5422 29.8681 34.3192 23.9491 34.3192Z" fill="white"/>
<path fill-rule="evenodd" clip-rule="evenodd" d="M29.8028 26.2249C29.4858 26.0699 27.9487 25.3159 27.6617 25.2149C27.3747 25.1069 27.1657 25.0599 26.9557 25.3709C26.7467 25.6819 26.1428 26.3809 25.9628 26.5849C25.7778 26.7939 25.5978 26.8179 25.2818 26.6629C24.9708 26.5079 23.9608 26.1849 22.7648 25.1199C21.8378 24.3009 21.2047 23.2849 21.0247 22.9739C20.8457 22.6629 21.0068 22.4959 21.1628 22.3399C21.3058 22.1969 21.4738 21.9749 21.6348 21.7959C21.6768 21.7419 21.7127 21.6939 21.7487 21.6459C21.8207 21.5319 21.8748 21.4249 21.9458 21.2749C22.0538 21.0659 21.9998 20.8869 21.9218 20.7309C21.8438 20.5749 21.2158 19.0449 20.9528 18.4229C20.6958 17.8009 20.4327 17.9089 20.2477 17.9089C20.0677 17.9089 19.8587 17.8789 19.6497 17.8789C19.4407 17.8789 19.0997 17.9569 18.8127 18.2669C18.5257 18.5779 17.7188 19.3309 17.7188 20.8619C17.7188 21.2209 17.7848 21.5789 17.8798 21.9199C18.1968 23.0139 18.8777 23.9169 18.9977 24.0719C19.1527 24.2749 21.1617 27.5149 24.3427 28.7649C27.5297 30.0029 27.5298 29.5899 28.1038 29.5359C28.6778 29.4879 29.9577 28.7889 30.2137 28.0589C30.4767 27.3359 30.4767 26.7139 30.3987 26.5819C30.3227 26.4579 30.1128 26.3799 29.8028 26.2249Z" fill="white"/>
</svg>
